<svg width="902" height="239" viewBox="0 0 902 239" fill="none" xmlns="http://www.w3.org/2000/svg">
<path fill-rule="evenodd" clip-rule="evenodd" d="M99.3929 114.311H126.85C127.816 114.311 128.6 115.12 128.6 116.119V157.754C128.6 158.753 127.816 159.559 126.85 159.559H99.3929C98.4246 159.559 97.6405 158.753 97.6405 157.754V116.119C97.6405 115.12 98.4246 114.311 99.3929 114.311Z" fill="#2F5D46"/>
<path fill-rule="evenodd" clip-rule="evenodd" d="M142.889 238.148C142.889 238.148 147.79 227.482 147.79 213.295C147.79 199.107 148.158 54.9131 148.158 54.9131L226.235 0C226.235 0 226.24 43.5462 226.24 62.8844C226.24 82.2251 203.063 94.4777 203.063 94.4777C203.063 94.4777 213.797 150.357 204.574 182.598C195.353 214.836 142.889 238.148 142.889 238.148Z" fill="#2F5D46"/>
<path fill-rule="evenodd" clip-rule="evenodd" d="M83.3517 238.148C83.3517 238.148 78.4504 227.482 78.4504 213.295C78.4504 199.107 78.082 54.9131 78.082 54.9131L0.00533924 0C0.00533924 0 0 43.5462 0 62.8844C0 82.2251 23.1771 94.4777 23.1771 94.4777C23.1771 94.4777 12.4455 150.357 21.6662 182.598C30.8868 214.836 83.3517 238.148 83.3517 238.148Z" fill="#2F5D46"/>
<path d="M824.86 111.838V187.248C824.86 189.351 825.132 190.877 825.675 191.827C826.285 192.777 827.201 193.489 828.422 193.964L832.188 194.982C834.291 195.932 835.342 197.323 835.342 199.155C835.342 202.14 833.443 203.632 829.643 203.632H790.361C788.462 203.632 787.037 203.259 786.087 202.513C785.205 201.767 784.764 200.715 784.764 199.358C784.764 198.34 785.069 197.492 785.68 196.814C786.291 196.068 787.24 195.457 788.529 194.982L792.498 193.964C793.72 193.557 794.635 192.879 795.246 191.929C795.857 190.911 796.162 189.351 796.162 187.248V129.037C796.162 127.273 795.891 126.018 795.348 125.271C794.805 124.525 793.957 124.05 792.804 123.847L787.41 123.44C786.189 123.168 785.307 122.727 784.764 122.117C784.221 121.506 783.95 120.726 783.95 119.776C783.95 118.623 784.289 117.707 784.968 117.028C785.646 116.282 786.901 115.604 788.733 114.993L807.56 108.073C810.138 107.123 812.207 106.445 813.768 106.037C815.396 105.563 816.889 105.325 818.245 105.325C820.417 105.325 822.045 105.936 823.13 107.157C824.284 108.31 824.86 109.871 824.86 111.838ZM821.706 134.532L817.024 129.749L820.993 126.187C829.61 118.25 837.106 112.72 843.484 109.599C849.929 106.411 855.967 104.816 861.598 104.816C870.35 104.816 877.406 107.598 882.766 113.161C888.126 118.724 890.806 126.221 890.806 135.652V186.942C890.806 189.181 891.111 190.81 891.721 191.827C892.4 192.845 893.384 193.557 894.673 193.964L898.235 194.982C899.592 195.457 900.541 196.068 901.084 196.814C901.695 197.492 902 198.34 902 199.358C902 200.715 901.559 201.767 900.677 202.513C899.795 203.259 898.404 203.632 896.505 203.632H857.121C853.253 203.632 851.32 202.14 851.32 199.155C851.32 197.323 852.405 195.932 854.576 194.982L858.444 193.964C859.733 193.489 860.649 192.743 861.191 191.726C861.802 190.708 862.107 189.113 862.107 186.942V139.824C862.107 133.854 860.649 129.41 857.731 126.493C854.882 123.507 850.981 122.015 846.028 122.015C843.043 122.015 839.82 122.727 836.36 124.152C832.9 125.577 829.372 127.85 825.776 130.97L821.706 134.532Z" fill="#201B15"/>
<path d="M760.063 111.838V187.248C760.063 189.351 760.335 190.911 760.877 191.929C761.488 192.879 762.404 193.557 763.625 193.965L767.492 194.982C768.781 195.389 769.731 195.966 770.342 196.712C771.02 197.459 771.359 198.34 771.359 199.358C771.359 200.715 770.885 201.767 769.935 202.513C769.053 203.259 767.628 203.632 765.66 203.632H725.564C723.664 203.632 722.24 203.259 721.29 202.513C720.408 201.767 719.967 200.715 719.967 199.358C719.967 198.34 720.272 197.492 720.883 196.814C721.493 196.068 722.443 195.457 723.732 194.982L727.701 193.965C728.922 193.557 729.838 192.879 730.449 191.929C731.06 190.911 731.365 189.351 731.365 187.248V129.037C731.365 127.273 731.093 126.018 730.551 125.272C730.008 124.525 729.16 124.05 728.007 123.847L722.715 123.44C721.426 123.168 720.51 122.727 719.967 122.117C719.424 121.506 719.153 120.726 719.153 119.776C719.153 118.623 719.492 117.707 720.17 117.028C720.849 116.282 722.104 115.604 723.936 114.993L742.763 108.073C745.409 107.055 747.512 106.343 749.072 105.936C750.701 105.529 752.091 105.325 753.245 105.325C755.552 105.325 757.248 105.936 758.333 107.157C759.487 108.31 760.063 109.871 760.063 111.838ZM743.475 89.7548C737.98 89.7548 733.57 88.3639 730.245 85.5823C726.989 82.7328 725.361 79.0353 725.361 74.4897C725.361 69.9441 726.989 66.3144 730.245 63.6006C733.57 60.8189 737.98 59.4281 743.475 59.4281C748.971 59.4281 753.347 60.8189 756.603 63.6006C759.928 66.3144 761.59 69.9441 761.59 74.4897C761.59 79.0353 759.928 82.7328 756.603 85.5823C753.347 88.3639 748.971 89.7548 743.475 89.7548Z" fill="#201B15"/>
<path d="M629.276 111.838V187.248C629.276 189.351 629.548 190.877 630.09 191.827C630.701 192.777 631.617 193.489 632.838 193.964L636.604 194.982C638.707 195.932 639.758 197.323 639.758 199.155C639.758 202.14 637.859 203.632 634.059 203.632H594.777C592.878 203.632 591.453 203.259 590.503 202.513C589.621 201.767 589.18 200.715 589.18 199.358C589.18 198.34 589.485 197.492 590.096 196.814C590.707 196.068 591.656 195.457 592.945 194.982L596.914 193.964C598.136 193.557 599.051 192.879 599.662 191.929C600.273 190.911 600.578 189.351 600.578 187.248V129.037C600.578 127.273 600.307 126.018 599.764 125.271C599.221 124.525 598.373 124.05 597.22 123.847L591.826 123.44C590.605 123.168 589.723 122.727 589.18 122.117C588.637 121.506 588.366 120.726 588.366 119.776C588.366 118.623 588.705 117.707 589.384 117.028C590.062 116.282 591.317 115.604 593.149 114.993L611.976 108.073C614.554 107.123 616.623 106.445 618.184 106.037C619.812 105.563 621.305 105.325 622.661 105.325C624.832 105.325 626.461 105.936 627.546 107.157C628.7 108.31 629.276 109.871 629.276 111.838ZM626.122 134.532L621.44 129.749L625.409 126.187C634.025 118.25 641.522 112.72 647.9 109.599C654.345 106.411 660.383 104.816 666.014 104.816C674.766 104.816 681.822 107.598 687.182 113.161C692.542 118.724 695.222 126.221 695.222 135.652V186.942C695.222 189.181 695.527 190.81 696.137 191.827C696.816 192.845 697.8 193.557 699.089 193.964L702.651 194.982C704.007 195.457 704.957 196.068 705.5 196.814C706.111 197.492 706.416 198.34 706.416 199.358C706.416 200.715 705.975 201.767 705.093 202.513C704.211 203.259 702.82 203.632 700.921 203.632H661.537C657.669 203.632 655.736 202.14 655.736 199.155C655.736 197.323 656.821 195.932 658.992 194.982L662.86 193.964C664.149 193.489 665.064 192.743 665.607 191.726C666.218 190.708 666.523 189.113 666.523 186.942V139.824C666.523 133.854 665.065 129.41 662.147 126.493C659.298 123.507 655.397 122.015 650.444 122.015C647.459 122.015 644.236 122.727 640.776 124.152C637.316 125.577 633.788 127.85 630.192 130.97L626.122 134.532Z" fill="#201B15"/>
<path d="M534.86 188.876V183.991L534.046 183.584V129.139C534.046 127.375 533.775 126.12 533.232 125.373C532.689 124.627 531.841 124.152 530.688 123.949L525.294 123.44C524.073 123.168 523.191 122.727 522.648 122.117C522.105 121.506 521.834 120.726 521.834 119.776C521.834 118.623 522.139 117.707 522.75 117.028C523.428 116.35 524.684 115.672 526.515 114.993L545.444 108.073C547.954 107.123 549.99 106.445 551.55 106.038C553.178 105.563 554.705 105.325 556.13 105.325C558.301 105.325 559.929 105.936 561.014 107.157C562.1 108.378 562.643 109.973 562.643 111.94V187.248C562.643 189.351 562.948 190.912 563.559 191.929C564.169 192.879 565.085 193.557 566.306 193.965L570.072 194.982C571.429 195.389 572.412 195.966 573.023 196.712C573.634 197.459 573.939 198.341 573.939 199.358C573.939 200.715 573.464 201.767 572.514 202.513C571.632 203.259 570.241 203.632 568.342 203.632H547.988C544.257 203.632 541.136 202.276 538.626 199.562C536.115 196.78 534.86 193.218 534.86 188.876ZM469.729 175.341V129.139C469.729 127.375 469.458 126.12 468.915 125.373C468.44 124.627 467.592 124.152 466.371 123.949L461.079 123.44C459.79 123.168 458.874 122.727 458.331 122.117C457.789 121.506 457.517 120.726 457.517 119.776C457.517 118.623 457.856 117.707 458.535 117.028C459.213 116.35 460.468 115.672 462.3 114.993L481.127 108.073C483.841 107.055 485.978 106.343 487.538 105.936C489.099 105.529 490.456 105.325 491.609 105.325C493.916 105.325 495.612 105.936 496.698 107.157C497.851 108.378 498.428 109.973 498.428 111.94V171.067C498.428 177.037 499.852 181.515 502.702 184.5C505.551 187.485 509.418 188.978 514.303 188.978C517.288 188.978 520.477 188.266 523.869 186.841C527.262 185.348 530.756 183.042 534.351 179.921L538.524 176.359L543.205 181.244L539.135 184.805C530.586 192.675 523.123 198.205 516.746 201.394C510.368 204.582 504.364 206.177 498.733 206.177C490.049 206.177 483.027 203.361 477.667 197.73C472.375 192.099 469.729 184.636 469.729 175.341Z" fill="#201B15"/>
<path d="M318.393 130.767H406.625V141.554H318.393V130.767ZM336.711 186.535C336.711 188.028 337.152 189.249 338.034 190.199C338.916 191.149 340.171 191.861 341.8 192.336L347.6 193.659C350.45 194.609 351.875 196.339 351.875 198.849C351.875 200.342 351.366 201.529 350.348 202.411C349.398 203.225 347.838 203.632 345.667 203.632H296.208C294.105 203.632 292.544 203.225 291.527 202.411C290.509 201.529 290 200.342 290 198.849C290 196.339 291.425 194.609 294.274 193.659L300.075 192.336C301.771 191.861 303.026 191.149 303.84 190.199C304.722 189.249 305.163 188.028 305.163 186.535V78.255C305.163 76.7624 304.722 75.5412 303.84 74.5914C303.026 73.6416 301.771 72.9292 300.075 72.4543L294.274 71.1313C291.425 70.1815 290 68.4514 290 65.9412C290 64.3807 290.509 63.1934 291.527 62.3793C292.544 61.5652 294.105 61.1581 296.208 61.1581H345.667C347.838 61.1581 349.398 61.5652 350.348 62.3793C351.366 63.1934 351.875 64.3807 351.875 65.9412C351.875 68.4514 350.45 70.1815 347.6 71.1313L341.8 72.4543C340.171 72.9292 338.916 73.6416 338.034 74.5914C337.152 75.5412 336.711 76.7624 336.711 78.255V186.535ZM427.284 186.535C427.284 188.028 427.691 189.249 428.505 190.199C429.387 191.149 430.676 191.861 432.372 192.336L438.071 193.659C440.989 194.609 442.447 196.339 442.447 198.849C442.447 200.342 441.939 201.529 440.921 202.411C439.903 203.225 438.343 203.632 436.24 203.632H386.679C384.576 203.632 383.015 203.225 381.998 202.411C381.048 201.529 380.573 200.342 380.573 198.849C380.573 196.339 381.998 194.609 384.847 193.659L390.648 192.336C392.276 191.861 393.531 191.149 394.413 190.199C395.295 189.249 395.736 188.028 395.736 186.535V78.255C395.736 76.7624 395.295 75.5412 394.413 74.5914C393.531 73.6416 392.276 72.9292 390.648 72.4543L384.847 71.1313C381.998 70.1815 380.573 68.4514 380.573 65.9412C380.573 64.3807 381.048 63.1934 381.998 62.3793C383.015 61.5652 384.576 61.1581 386.679 61.1581H436.24C438.343 61.1581 439.903 61.5652 440.921 62.3793C441.939 63.1934 442.447 64.3807 442.447 65.9412C442.447 68.4514 440.989 70.1815 438.071 71.1313L432.372 72.4543C430.676 72.9292 429.387 73.6416 428.505 74.5914C427.691 75.5412 427.284 76.7624 427.284 78.255V186.535Z" fill="#201B15"/>
</svg>
