<svg width="264" height="278" viewBox="0 0 264 278" fill="none" xmlns="http://www.w3.org/2000/svg">
<path fill-rule="evenodd" clip-rule="evenodd" d="M115.902 133.298H147.919C149.046 133.298 149.96 134.241 149.96 135.406V183.956C149.96 185.121 149.046 186.061 147.919 186.061H115.902C114.773 186.061 113.858 185.121 113.858 183.956V135.406C113.858 134.241 114.773 133.298 115.902 133.298Z" fill="#2F5D46"/>
<path fill-rule="evenodd" clip-rule="evenodd" d="M166.622 277.703C166.622 277.703 172.337 265.266 172.337 248.722C172.337 232.179 172.767 64.034 172.767 64.034L263.812 0C263.812 0 263.818 50.7792 263.818 73.3293C263.818 95.8826 236.791 110.17 236.791 110.17C236.791 110.17 249.309 175.331 238.553 212.927C227.801 250.52 166.622 277.703 166.622 277.703Z" fill="#2F5D46"/>
<path fill-rule="evenodd" clip-rule="evenodd" d="M97.1962 277.703C97.1962 277.703 91.4808 265.266 91.4808 248.722C91.4808 232.179 91.0512 64.034 91.0512 64.034L0.00622608 0C0.00622608 0 0 50.7792 0 73.3293C0 95.8826 27.0268 110.17 27.0268 110.17C27.0268 110.17 14.5127 175.331 25.2649 212.927C36.017 250.52 97.1962 277.703 97.1962 277.703Z" fill="#2F5D46"/>
</svg>
